# xmcd CD database file
#
# Track frame offsets:
#	150
#	24250
#	45031
#	71518
#
# Disc length: 1159 seconds
#
# Revision: 3
# Processed by: cddbd v1.5.2PL0 Copyright (c) Steve Scherf et al.
# Submitted via: CDex 1.70beta2
#
DISCID=21048504
DTITLE=Ms.OOJA - 30
DYEAR=1900
DGENRE=Blues
TTITLE0=30
TTITLE1=優しい雨
TTITLE2=紫陽花
TTITLE3=シルエット・ロマンス
EXTD=
EXTT0=
EXTT1=
EXTT2=
EXTT3=
PLAYORDER=
